<svg width="20" height="16" viewBox="0 0 20 16" fill="none" xmlns="http://www.w3.org/2000/svg">
<path d="M19.0443 8.79735L12.2943 15.5474C12.083 15.7587 11.7963 15.8774 11.4974 15.8774C11.1986 15.8774 10.9119 15.7587 10.7006 15.5474C10.4892 15.336 10.3705 15.0494 10.3705 14.7505C10.3705 14.4516 10.4892 14.1649 10.7006 13.9536L15.5296 9.12642H1.74838C1.45001 9.12642 1.16387 9.00789 0.952887 8.79691C0.741909 8.58593 0.623383 8.29978 0.623383 8.00142C0.623383 7.70305 0.741909 7.4169 0.952887 7.20592C1.16387 6.99494 1.45001 6.87642 1.74838 6.87642H15.5296L10.7024 2.04642C10.4911 1.83507 10.3724 1.54843 10.3724 1.24954C10.3724 0.950654 10.4911 0.66401 10.7024 0.452665C10.9138 0.241321 11.2004 0.122589 11.4993 0.122589C11.7982 0.122589 12.0849 0.241321 12.2962 0.452665L19.0462 7.20267C19.1511 7.30732 19.2343 7.43167 19.291 7.56857C19.3477 7.70547 19.3768 7.85222 19.3766 8.0004C19.3764 8.14858 19.347 8.29526 19.29 8.43203C19.2329 8.56879 19.1495 8.69294 19.0443 8.79735Z" fill="black"/>
</svg>
