<svg width="17" height="18" viewBox="0 0 17 18" fill="none" xmlns="http://www.w3.org/2000/svg">
<path fill-rule="evenodd" clip-rule="evenodd" d="M5.17052 10.3376C3.59179 9.31951 2.55188 7.59976 2.55188 5.65469C2.55188 2.53812 5.22171 0 8.50002 0C11.7783 0 14.4482 2.53812 14.4482 5.65469C14.4482 7.59976 13.4082 9.31952 11.8295 10.3376C14.8667 11.5711 17 14.4391 17 17.7727H15.2988C15.2988 14.2076 12.2502 11.3094 8.5 11.3094C4.74982 11.3094 1.70124 14.2076 1.70124 17.7727H0C0 14.4391 2.13329 11.5711 5.17052 10.3376ZM4.25312 5.64879C4.25312 3.42351 6.15926 1.61141 8.50002 1.61141C10.8408 1.61141 12.7469 3.42351 12.7469 5.64879C12.7469 7.87407 10.8408 9.68617 8.50002 9.68617C6.15926 9.68617 4.25312 7.87407 4.25312 5.64879Z" fill="url(#paint0_linear_1_11)"/>
<defs>
<linearGradient id="paint0_linear_1_11" x1="16.6136" y1="17.3864" x2="16.2273" y2="2.70455" gradientUnits="userSpaceOnUse">
<stop stop-color="#464646"/>
<stop offset="1" stop-color="#BBBBBB"/>
</linearGradient>
</defs>
</svg>
