<svg width="21" height="21" viewBox="0 0 21 21" fill="none" xmlns="http://www.w3.org/2000/svg">
  <g clip-path="url(#clip0_851_87)">
    <path d="M10.5 0.5C16.0313 0.5 20.5 4.96875 20.5 10.5C20.5 16.0313 16.0313 20.5 10.5 20.5C4.96875 20.5 0.5 16.0313 0.5 10.5C0.5 4.96875 4.96875 0.5 10.5 0.5Z" fill="#005BEF"/>
    <mask id="mask0_851_87" style="mask-type:luminance" maskUnits="userSpaceOnUse" x="0" y="0" width="21" height="21">
      <path d="M10.5 0.5C16.0313 0.5 20.5 4.96875 20.5 10.5C20.5 16.0313 16.0313 20.5 10.5 20.5C4.96875 20.5 0.5 16.0313 0.5 10.5C0.5 4.96875 4.96875 0.5 10.5 0.5Z" fill="white"/>
    </mask>
    <g mask="url(#mask0_851_87)">
      <path d="M4.5625 20.5C4.5625 17.5937 7.21875 15.1875 10.5 15.1875C13.75 15.1875 16.4375 17.5937 16.4375 20.5" fill="white"/>
    </g>
    <mask id="mask1_851_87" style="mask-type:luminance" maskUnits="userSpaceOnUse" x="0" y="0" width="21" height="21">
      <path d="M10.5 0.5C16.0313 0.5 20.5 4.96875 20.5 10.5C20.5 16.0313 16.0313 20.5 10.5 20.5C4.96875 20.5 0.5 16.0313 0.5 10.5C0.5 4.96875 4.96875 0.5 10.5 0.5Z" fill="white"/>
    </mask>
    <g mask="url(#mask1_851_87)">
      <path d="M10.5 18C11.5355 18 12.375 17.1605 12.375 16.125C12.375 15.0895 11.5355 14.25 10.5 14.25C9.46447 14.25 8.625 15.0895 8.625 16.125C8.625 17.1605 9.46447 18 10.5 18Z" fill="white"/>
    </g>
    <mask id="mask2_851_87" style="mask-type:luminance" maskUnits="userSpaceOnUse" x="0" y="0" width="21" height="21">
      <path d="M10.5 0.5C16.0313 0.5 20.5 4.96875 20.5 10.5C20.5 16.0313 16.0313 20.5 10.5 20.5C4.96875 20.5 0.5 16.0313 0.5 10.5C0.5 4.96875 4.96875 0.5 10.5 0.5Z" fill="white"/>
    </mask>
    <g mask="url(#mask2_851_87)">
      <path d="M11.7812 14.6562V16.0938C11.7812 16.8125 11.1875 17.375 10.5 17.375C10.1563 17.375 9.8125 17.2187 9.59375 17C9.375 16.75 9.21875 16.4375 9.21875 16.0938V14.6562H11.7812Z" fill="#FFB77B"/>
    </g>
    <mask id="mask3_851_87" style="mask-type:luminance" maskUnits="userSpaceOnUse" x="0" y="0" width="21" height="21">
      <path d="M10.5 0.5C16.0313 0.5 20.5 4.96875 20.5 10.5C20.5 16.0313 16.0313 20.5 10.5 20.5C4.96875 20.5 0.5 16.0313 0.5 10.5C0.5 4.96875 4.96875 0.5 10.5 0.5Z" fill="white"/>
    </mask>
    <g mask="url(#mask3_851_87)">
      <path d="M11.8437 15.5937C11.4062 15.75 10.9688 15.8125 10.5 15.8125C10.0312 15.8125 9.59375 15.75 9.15625 15.5937L8.625 15.3438C7.625 14.7813 6.9375 13.8437 6.78125 12.7812C6.75 12.5937 6.75 12.4375 6.75 12.2813C6.75 11.9688 6.75 11.3125 6.75 10.75C6.75 10.2187 6.75 7.6875 6.75 7.6875H14.25C14.25 7.6875 14.25 10.2187 14.25 10.75C14.25 11.3125 14.25 11.9375 14.25 12.2813C14.25 12.4375 14.25 12.625 14.2188 12.7812C14.1563 13.25 14 13.6563 13.75 14.0625C13.4375 14.5938 12.9687 15.0312 12.375 15.3438C12.1875 15.4375 12.0312 15.5 11.8437 15.5937Z" fill="#FAD3A1"/>
    </g>
    <mask id="mask4_851_87" style="mask-type:luminance" maskUnits="userSpaceOnUse" x="0" y="0" width="21" height="21">
      <path d="M10.5 0.5C16.0313 0.5 20.5 4.96875 20.5 10.5C20.5 16.0313 16.0313 20.5 10.5 20.5C4.96875 20.5 0.5 16.0313 0.5 10.5C0.5 4.96875 4.96875 0.5 10.5 0.5Z" fill="white"/>
    </mask>
    <g mask="url(#mask4_851_87)">
      <path d="M8.78125 10.5C9.03125 10.5 9.25 10.7187 9.25 10.9688C9.25 11.2188 9.03125 11.4375 8.78125 11.4375C8.53125 11.4375 8.3125 11.2188 8.3125 10.9688C8.3125 10.7187 8.53125 10.5 8.78125 10.5Z" fill="#262647"/>
    </g>
    <mask id="mask5_851_87" style="mask-type:luminance" maskUnits="userSpaceOnUse" x="0" y="0" width="21" height="21">
      <path d="M10.5 0.5C16.0313 0.5 20.5 4.96875 20.5 10.5C20.5 16.0313 16.0313 20.5 10.5 20.5C4.96875 20.5 0.5 16.0313 0.5 10.5C0.5 4.96875 4.96875 0.5 10.5 0.5Z" fill="white"/>
    </mask>
    <g mask="url(#mask5_851_87)">
      <path d="M11.75 10.9688C11.75 10.7187 11.9687 10.5 12.2188 10.5C12.4688 10.5 12.6875 10.7187 12.6875 10.9688C12.6875 11.2188 12.4688 11.4375 12.2188 11.4375C11.9687 11.4375 11.75 11.2188 11.75 10.9688Z" fill="#262647"/>
    </g>
    <mask id="mask6_851_87" style="mask-type:luminance" maskUnits="userSpaceOnUse" x="0" y="0" width="21" height="21">
      <path d="M10.5 0.5C16.0313 0.5 20.5 4.96875 20.5 10.5C20.5 16.0313 16.0313 20.5 10.5 20.5C4.96875 20.5 0.5 16.0313 0.5 10.5C0.5 4.96875 4.96875 0.5 10.5 0.5Z" fill="white"/>
    </mask>
    <g mask="url(#mask6_851_87)">
      <path d="M10.8125 12.6875C10.8125 12.875 10.6875 13 10.5 13C10.3125 13 10.1875 12.875 10.1875 12.6875H10.8125Z" fill="#FFB77B"/>
    </g>
    <mask id="mask7_851_87" style="mask-type:luminance" maskUnits="userSpaceOnUse" x="0" y="0" width="21" height="21">
      <path d="M10.5 0.5C16.0313 0.5 20.5 4.96875 20.5 10.5C20.5 16.0313 16.0313 20.5 10.5 20.5C4.96875 20.5 0.5 16.0313 0.5 10.5C0.5 4.96875 4.96875 0.5 10.5 0.5Z" fill="white"/>
    </mask>
    <g mask="url(#mask7_851_87)">
      <path d="M10.4992 14.4059C9.99916 14.4059 9.53041 14.1246 9.28041 13.7184C9.24916 13.6246 9.24916 13.5309 9.34291 13.4996C9.40541 13.4684 9.49916 13.4684 9.56166 13.5621C9.74916 13.9059 10.1242 14.1246 10.4992 14.1246C10.8742 14.1246 11.2492 13.9059 11.4367 13.5621C11.4679 13.4996 11.5617 13.4684 11.6554 13.4996C11.7179 13.5309 11.7492 13.6246 11.7179 13.7184C11.4679 14.1246 10.9992 14.4059 10.4992 14.4059Z" fill="#F4B28E"/>
    </g>
    <mask id="mask8_851_87" style="mask-type:luminance" maskUnits="userSpaceOnUse" x="0" y="0" width="21" height="21">
      <path d="M10.5 0.5C16.0313 0.5 20.5 4.96875 20.5 10.5C20.5 16.0313 16.0313 20.5 10.5 20.5C4.96875 20.5 0.5 16.0313 0.5 10.5C0.5 4.96875 4.96875 0.5 10.5 0.5Z" fill="white"/>
    </mask>
    <g mask="url(#mask8_851_87)">
      <path d="M14.875 8.62509V10.8126H14.25V9.12509L12.5625 7.81259C12.0937 9.06259 10.7187 9.93759 9.34375 9.93759C8.40625 9.93759 7.34375 9.53134 6.75 8.87509V9.15634V10.8126H6.125V8.15634C6.125 7.18759 6.4375 6.40634 6.96875 5.81259C7.78125 4.87509 9 4.21884 10.1875 4.25009C11.1562 4.28134 11.875 4.59384 13 4.25009C13.0938 4.40634 13.1562 4.62509 13.0937 4.93759C13.0625 5.18759 13.0313 5.25009 13 5.40634C14.0938 6.21884 14.875 7.12509 14.875 8.62509Z" fill="#262647"/>
    </g>
    <mask id="mask9_851_87" style="mask-type:luminance" maskUnits="userSpaceOnUse" x="0" y="0" width="21" height="21">
      <path d="M10.5 0.5C16.0313 0.5 20.5 4.96875 20.5 10.5C20.5 16.0313 16.0313 20.5 10.5 20.5C4.96875 20.5 0.5 16.0313 0.5 10.5C0.5 4.96875 4.96875 0.5 10.5 0.5Z" fill="white"/>
    </mask>
    <g mask="url(#mask9_851_87)">
      <path d="M6.75 12.0625C6.21875 12.0625 5.8125 11.6563 5.8125 11.125C5.8125 10.875 5.90625 10.625 6.09375 10.4687C6.25 10.3125 6.5 10.1875 6.75 10.1875V12.0625Z" fill="#FFB77B"/>
    </g>
    <mask id="mask10_851_87" style="mask-type:luminance" maskUnits="userSpaceOnUse" x="0" y="0" width="21" height="21">
      <path d="M10.5 0.5C16.0313 0.5 20.5 4.96875 20.5 10.5C20.5 16.0313 16.0313 20.5 10.5 20.5C4.96875 20.5 0.5 16.0313 0.5 10.5C0.5 4.96875 4.96875 0.5 10.5 0.5Z" fill="white"/>
    </mask>
    <g mask="url(#mask10_851_87)">
      <path d="M14.25 12.0625C14.7813 12.0625 15.1875 11.6563 15.1875 11.125C15.1875 10.875 15.0937 10.625 14.9062 10.4687C14.75 10.2812 14.5 10.1875 14.25 10.1875V12.0625Z" fill="#FFB77B"/>
    </g>
  </g>
  <defs>
    <clipPath id="clip0_851_87">
      <rect width="20" height="20" fill="white" transform="translate(0.5 0.5)"/>
    </clipPath>
  </defs>
</svg>
