<svg width="136" height="106" viewBox="0 0 136 106" fill="none" xmlns="http://www.w3.org/2000/svg">
<path fill-rule="evenodd" clip-rule="evenodd" d="M0 0H136V106H0V0Z" fill="white"/>
<rect x="10" y="10" width="34.4865" height="24.5714" rx="1" fill="#5DDAED"/>
<rect x="10" y="38.6667" width="20.7597" height="2" rx="1" fill="#A6B2C5"/>
<rect x="10" y="85" width="20.7597" height="2" rx="1" fill="#A6B2C5"/>
<rect x="10" y="44" width="32.6224" height="1" rx="0.5" fill="#A6B2C5"/>
<rect x="10" y="90.3333" width="32.6224" height="1" rx="0.5" fill="#A6B2C5"/>
<rect x="10" y="48.2143" width="32.6224" height="1" rx="0.5" fill="#A6B2C5"/>
<rect x="10" y="94.5476" width="32.6224" height="1" rx="0.5" fill="#A6B2C5"/>
<rect x="10" y="56.0714" width="34.4865" height="24.5714" rx="1" fill="#FFD600"/>
<rect x="50.7568" y="10" width="34.4865" height="24.5714" rx="1" fill="#72A6FC"/>
<rect x="50.7568" y="38.6667" width="20.7597" height="2" rx="1" fill="#A6B2C5"/>
<rect x="50.7568" y="85" width="20.7597" height="2" rx="1" fill="#A6B2C5"/>
<rect x="50.7568" y="44" width="32.6224" height="1" rx="0.5" fill="#A6B2C5"/>
<rect x="50.7568" y="90.3333" width="32.6224" height="1" rx="0.5" fill="#A6B2C5"/>
<rect x="50.7568" y="48.2143" width="32.6224" height="1" rx="0.5" fill="#A6B2C5"/>
<rect x="50.7568" y="94.5476" width="32.6224" height="1" rx="0.5" fill="#A6B2C5"/>
<rect x="50.7568" y="56.0714" width="34.4865" height="24.5714" rx="1" fill="#F3A4CF"/>
<rect x="91.5134" y="10" width="34.4865" height="24.5714" rx="1" fill="#FF9900"/>
<rect x="91.5134" y="38.6667" width="20.7597" height="2" rx="1" fill="#A6B2C5"/>
<rect x="91.5134" y="85" width="20.7597" height="2" rx="1" fill="#A6B2C5"/>
<rect x="91.5134" y="44" width="32.6224" height="1" rx="0.5" fill="#A6B2C5"/>
<rect x="91.5134" y="90.3333" width="32.6224" height="1" rx="0.5" fill="#A6B2C5"/>
<rect x="91.5134" y="48.2143" width="32.6224" height="1" rx="0.5" fill="#A6B2C5"/>
<rect x="91.5134" y="94.5476" width="32.6224" height="1" rx="0.5" fill="#A6B2C5"/>
<rect x="91.5134" y="56.0714" width="34.4865" height="24.5714" rx="1" fill="#CF86F1"/>
</svg>
