<svg width="136" height="106" viewBox="0 0 136 106" fill="none" xmlns="http://www.w3.org/2000/svg">
<path fill-rule="evenodd" clip-rule="evenodd" d="M0 0H136V106H0V0Z" fill="white"/>
<rect x="10" y="10" width="24" height="24" rx="3" fill="#F5A630"/>
<rect x="40" y="14" width="55" height="4" rx="2" fill="#A6B2C5"/>
<rect x="40" y="21" width="86" height="2" rx="1" fill="#A6B2C5"/>
<rect x="40" y="27" width="66" height="2" rx="1" fill="#A6B2C5"/>
<rect x="10" y="41" width="24" height="24" rx="3" fill="#CF86F1"/>
<rect x="40" y="45" width="55" height="4" rx="2" fill="#A6B2C5"/>
<rect x="40" y="52" width="86" height="2" rx="1" fill="#A6B2C5"/>
<rect x="40" y="58" width="66" height="2" rx="1" fill="#A6B2C5"/>
<rect x="10" y="72" width="24" height="24" rx="3" fill="#5DDAED"/>
<rect x="40" y="76" width="55" height="4" rx="2" fill="#A6B2C5"/>
<rect x="40" y="83" width="86" height="2" rx="1" fill="#A6B2C5"/>
<rect x="40" y="89" width="66" height="2" rx="1" fill="#A6B2C5"/>
</svg>
