<svg width="77" height="61" viewBox="0 0 77 61" fill="none" xmlns="http://www.w3.org/2000/svg">
<rect y="0.53949" width="77" height="60" fill="white"/>
<rect x="13.9725" y="14.7862" width="20.8337" height="13.1389" stroke="#62B3EB" stroke-width="1.4"/>
<line x1="13.2725" y1="32.7312" x2="33.2677" y2="32.7312" stroke="#62B3EB" stroke-width="1.4"/>
<line x1="13.2725" y1="36.8182" x2="30.7709" y2="36.8182" stroke="#62B3EB" stroke-width="1.4"/>
<rect x="42.243" y="14.7862" width="20.8337" height="13.1389" stroke="#62B3EB" stroke-width="1.4"/>
<line x1="41.543" y1="32.7312" x2="61.5382" y2="32.7312" stroke="#62B3EB" stroke-width="1.4"/>
<line x1="41.543" y1="36.8182" x2="59.0414" y2="36.8182" stroke="#62B3EB" stroke-width="1.4"/>
<line x1="27.1025" y1="47.8522" x2="31.9043" y2="47.8522" stroke="#62B3EB" stroke-width="1.4"/>
<line x1="35.5254" y1="47.8522" x2="40.3271" y2="47.8522" stroke="#62B3EB" stroke-width="1.4"/>
<line x1="43.9482" y1="47.8522" x2="48.75" y2="47.8522" stroke="#62B3EB" stroke-width="1.4"/>
<path d="M19.4365 24.1865L20.9013 21.8566L21.9429 23.4643L24.3191 19.946L27.1022 24.0001M19.4365 18.5248H20.413V20.2023H19.4365V18.5248Z" stroke="#62B3EB" stroke-opacity="0.9" stroke-width="0.5"/>
<path d="M47.708 24.1865L49.1728 21.8566L50.2144 23.4643L52.5906 19.946L55.3737 24.0001M47.708 18.5248H48.6845V20.2023H47.708V18.5248Z" stroke="#62B3EB" stroke-opacity="0.9" stroke-width="0.5"/>
<path d="M69.7082 25.9956L72.8789 22.825L69.7082 19.6543" stroke="#62B3EB" stroke-width="1.4"/>
<path d="M7.29177 19.6543L4.12109 22.825L7.29177 25.9956" stroke="#62B3EB" stroke-width="1.4"/>
</svg>
